<svg width="127" height="34" viewBox="0 0 127 34" fill="none" xmlns="http://www.w3.org/2000/svg">
<g clip-path="url(#clip0_3_4)">
<path d="M19.5986 18.5005C18.7702 19.9354 16.9354 20.427 15.5005 19.5986C14.0656 18.7701 13.574 16.9354 14.4024 15.5005C15.2309 14.0656 17.0656 13.574 18.5005 14.4024C19.9354 15.2308 20.427 17.0656 19.5986 18.5005Z" fill="white"/>
<path d="M23.2324 10.2074C22.6801 11.1639 21.4569 11.4917 20.5003 10.9394C19.5437 10.3871 19.216 9.16395 19.7683 8.20736C20.3205 7.25078 21.5437 6.92303 22.5003 7.47531C23.4569 8.0276 23.7846 9.25078 23.2324 10.2074Z" fill="white"/>
<path d="M19.7683 25.7933C19.216 24.8367 19.5437 23.6135 20.5003 23.0612C21.4569 22.5089 22.6801 22.8367 23.2324 23.7933C23.7847 24.7498 23.4569 25.973 22.5003 26.5253C21.5437 27.0776 20.3206 26.7498 19.7683 25.7933Z" fill="white"/>
<path d="M26 19C24.8954 19 24 18.1046 24 17C24 15.8955 24.8954 15 26 15C27.1046 15 28 15.8955 28 17C28 18.1046 27.1046 19 26 19Z" fill="white"/>
<path d="M14.2324 25.7933C13.6801 26.7499 12.4569 27.0777 11.5003 26.5254C10.5437 25.9731 10.216 24.7499 10.7683 23.7933C11.3205 22.8367 12.5437 22.509 13.5003 23.0613C14.4569 23.6136 14.7846 24.8367 14.2324 25.7933Z" fill="white"/>
<path d="M10.7682 10.2073C10.216 9.25078 10.5437 8.0276 11.5003 7.47532C12.4569 6.92303 13.6801 7.25078 14.2323 8.20737C14.7846 9.16395 14.4569 10.3871 13.5003 10.9394C12.5437 11.4917 11.3205 11.1639 10.7682 10.2073Z" fill="white"/>
<path d="M8 19C6.89543 19 6 18.1045 6 17C6 15.8954 6.89543 15 8 15C9.10457 15 10 15.8954 10 17C10 18.1045 9.10457 19 8 19Z" fill="white"/>
<path d="M25.8662 3.6447C25.5901 4.12299 24.9785 4.28686 24.5002 4.01072C24.0219 3.73458 23.858 3.12299 24.1342 2.6447C24.4103 2.1664 25.0219 2.00253 25.5002 2.27867C25.9785 2.55481 26.1424 3.1664 25.8662 3.6447Z" fill="white"/>
<path d="M33 18C32.4477 18 32 17.5522 32 17C32 16.4477 32.4477 16 33 16C33.5522 16 34 16.4477 34 17C34 17.5522 33.5522 18 33 18Z" fill="white"/>
<path d="M31.3556 9.86619C30.8773 10.1424 30.2658 9.97846 29.9896 9.50017C29.7135 9.02187 29.8773 8.41028 30.3556 8.13414C30.8339 7.858 31.4455 8.02187 31.7217 8.50017C31.9978 8.97846 31.8339 9.59005 31.3556 9.86619Z" fill="white"/>
<path d="M30.3556 25.8662C29.8773 25.5901 29.7134 24.9785 29.9896 24.5002C30.2657 24.0219 30.8773 23.858 31.3556 24.1342C31.8339 24.4103 31.9978 25.0219 31.7216 25.5002C31.4455 25.9785 30.8339 26.1424 30.3556 25.8662Z" fill="white"/>
<path d="M16 33C16 32.4477 16.4477 32 17 32C17.5523 32 18 32.4477 18 33C18 33.5523 17.5523 34 17 34C16.4477 34 16 33.5523 16 33Z" fill="white"/>
<path d="M24.1341 31.3557C23.858 30.8774 24.0219 30.2658 24.5002 29.9896C24.9785 29.7135 25.5901 29.8774 25.8662 30.3557C26.1423 30.834 25.9785 31.4455 25.5002 31.7217C25.0219 31.9978 24.4103 31.834 24.1341 31.3557Z" fill="white"/>
<path d="M9.8662 31.3556C9.59005 31.8339 8.97846 31.9978 8.50017 31.7216C8.02188 31.4455 7.858 30.8339 8.13415 30.3556C8.41029 29.8773 9.02188 29.7134 9.50017 29.9896C9.97846 30.2657 10.1424 30.8773 9.8662 31.3556Z" fill="white"/>
<path d="M1 18C0.447715 18 -3.44684e-08 17.5523 0 17C3.44684e-08 16.4477 0.447715 16 1 16C1.55228 16 2 16.4477 2 17C2 17.5523 1.55228 18 1 18Z" fill="white"/>
<path d="M3.6447 25.8662C3.1664 26.1424 2.55481 25.9785 2.27867 25.5002C2.00253 25.0219 2.1664 24.4103 2.6447 24.1342C3.12299 23.858 3.73458 24.0219 4.01072 24.5002C4.28686 24.9785 4.12299 25.5901 3.6447 25.8662Z" fill="white"/>
<path d="M2.6447 9.8662C2.1664 9.59005 2.00253 8.97846 2.27867 8.50017C2.55481 8.02188 3.1664 7.858 3.6447 8.13415C4.12299 8.41029 4.28686 9.02188 4.01072 9.50017C3.73458 9.97846 3.12299 10.1424 2.6447 9.8662Z" fill="white"/>
<path d="M16 1C16 0.447715 16.4477 -4.87226e-08 17 0C17.5523 4.87226e-08 18 0.447715 18 1C18 1.55228 17.5523 2 17 2C16.4477 2 16 1.55228 16 1Z" fill="white"/>
<path d="M8.13415 3.6447C7.858 3.16641 8.02188 2.55482 8.50017 2.27867C8.97846 2.00253 9.59005 2.16641 9.8662 2.6447C10.1424 3.12299 9.97846 3.73458 9.50017 4.01072C9.02188 4.28687 8.41029 4.12299 8.13415 3.6447Z" fill="white"/>
<path d="M117.357 25.3066C114.154 25.3066 112.221 23.2168 112.221 19.7598V19.7402C112.221 16.3125 114.184 14.2129 117.357 14.2129C120.541 14.2129 122.494 16.3027 122.494 19.7402V19.7598C122.494 23.2168 120.551 25.3066 117.357 25.3066ZM117.357 23.334C119.047 23.334 120.004 22.0156 120.004 19.7695V19.75C120.004 17.5039 119.037 16.1758 117.357 16.1758C115.668 16.1758 114.701 17.5039 114.701 19.75V19.7695C114.701 22.0156 115.668 23.334 117.357 23.334Z" fill="white"/>
<path d="M104.701 25.0918V14.418H107.133V16.0586H107.299C107.66 14.916 108.637 14.2422 110.043 14.2422C110.414 14.2422 110.795 14.291 111.029 14.3594V16.5371C110.639 16.459 110.238 16.4004 109.818 16.4004C108.197 16.4004 107.133 17.3672 107.133 18.8906V25.0918H104.701Z" fill="white"/>
<path d="M91.752 25.0918V11H97.377C100.238 11 102.172 12.8848 102.172 15.707V15.7266C102.172 18.5391 100.238 20.4336 97.377 20.4336H94.2715V25.0918H91.752ZM96.7617 13.0605H94.2715V18.4023H96.7617C98.5684 18.4023 99.623 17.4258 99.623 15.7363V15.7168C99.623 14.0273 98.5684 13.0605 96.7617 13.0605Z" fill="white"/>
<path d="M76.918 25.0918V13.1191H72.582V11H83.7832V13.1191H79.4375V25.0918H76.918Z" fill="white"/>
<path d="M56.4297 25.0918L52.6504 11H55.2773L57.6895 21.5762H57.8359L60.6094 11H62.8457L65.6582 21.5762H65.7949L68.207 11H70.8145L67.0352 25.0918H64.6719L61.8008 15.0039H61.6543L58.8027 25.0918H56.4297Z" fill="white"/>
<path d="M45.4727 25.4434C42.7383 25.4434 41.1074 23.793 41.0098 21.3809L41 21.2734H43.4609L43.4707 21.3418C43.5391 22.4258 44.2031 23.2363 45.4531 23.2363C46.8105 23.2363 47.5332 22.416 47.5332 20.8926V11H50.0527V20.9121C50.0527 23.7637 48.3633 25.4434 45.4727 25.4434Z" fill="white"/>
</g>
<defs>
<clipPath id="clip0_3_4">
<rect width="127" height="34" fill="white"/>
</clipPath>
</defs>
</svg>
